<svg xmlns="http://www.w3.org/2000/svg" width="200" height="36" viewBox="0 0 200 36" fill="none"><path d="M151.787 8.14665H153.283L157.357 19.1608C158.271 21.6962 158.77 23.1925 159.559 25.52H159.601C160.391 23.1093 160.931 21.5299 161.804 19.1608L165.877 8.14665H167.332L160.474 26.7253H158.728L151.787 8.14665ZM185.744 9.26885C184.497 9.35197 183.167 9.39353 181.92 9.47666C182.835 10.3495 183.458 11.8873 183.458 14.4642C183.458 19.5349 181.047 21.3221 176.642 21.3221C175.021 21.3221 173.857 21.0727 172.901 20.6571C171.904 21.3221 171.53 21.7793 171.53 22.4859C171.53 23.3587 172.111 24.0237 175.187 24.6472C177.515 25.1459 179.468 25.52 181.089 25.8525C183.666 26.3928 184.913 27.515 184.913 29.801C184.913 32.9598 182.627 35.412 176.476 35.412C170.698 35.412 168.786 33.3338 168.786 30.175C168.786 27.6813 170.449 26.2265 172.735 25.229C171.072 24.7303 170.158 23.8575 170.158 22.6106C170.158 21.4468 170.781 20.8649 171.862 20.0337C170.74 19.0777 169.909 17.4983 169.909 14.5473C169.909 9.47666 172.319 7.68945 176.725 7.68945C178.304 7.68945 179.26 7.89727 180.05 8.18821H185.744V9.26885ZM174.522 25.7278C172.111 26.4759 170.2 27.7644 170.2 30.175C170.2 32.7104 171.571 34.2898 176.559 34.2898C181.92 34.2898 183.5 32.1701 183.5 29.9257C183.5 28.2216 182.419 27.3903 180.424 26.9747C178.429 26.5591 176.517 26.1434 174.522 25.7278ZM176.642 8.85322C172.818 8.85322 171.322 10.1001 171.322 14.4642C171.322 18.8283 172.776 20.1584 176.683 20.1584C180.507 20.1584 182.045 18.9115 182.045 14.5473C182.045 10.1832 180.466 8.85322 176.642 8.85322ZM188.446 25.3122C190.108 25.6862 191.563 25.894 192.934 25.894C197.174 25.894 198.67 24.2731 198.67 21.9871C198.67 19.909 197.756 19.244 193.932 17.7477C189.942 16.2099 188.57 15.1708 188.57 12.5939C188.57 9.47666 190.939 7.81414 194.971 7.81414C196.467 7.81414 198.005 8.06352 199.335 8.43759L199.086 9.60135C197.59 9.26885 196.26 9.01947 194.846 9.01947C191.521 9.01947 189.942 10.2248 189.942 12.5939C189.942 14.3395 190.732 15.1292 194.472 16.5839C198.587 18.2049 200 19.0777 200 21.9871C200 25.0628 197.839 27.1409 192.727 27.1409C191.272 27.1409 189.734 26.9331 188.113 26.5175L188.446 25.3122Z" fill="#9E3095"></path><path d="M0 0H4.28099V12.5936L13.0508 0H18.0383L8.68667 12.8014L18.4955 26.5588H13.4248L4.28099 13.5495V26.5588H0V0ZM21.2387 12.5936C21.2387 12.5936 25.0209 7.10727 30.05 7.10727C30.7151 7.10727 31.1722 7.23196 31.5879 7.48134L31.0476 11.2636C30.5904 11.0142 30.0916 10.9311 29.4266 10.9311C28.4291 10.9311 27.1822 11.6376 25.5197 12.6767V26.5172H21.2803L21.2387 12.5936ZM41.563 27.0575C36.1182 27.0575 33.1673 25.0625 33.1673 17.2071C33.1673 9.39324 36.3261 7.10727 41.7293 7.10727C47.174 7.10727 50.125 9.1023 50.125 16.9577C50.125 24.8131 46.9662 27.0575 41.563 27.0575ZM41.6046 10.4323C38.7783 10.4323 37.4067 11.5545 37.4067 17.0824C37.4067 22.6934 38.7783 23.8572 41.6461 23.8572C44.514 23.8572 45.8856 22.6934 45.8856 17.1655C45.8856 11.5545 44.4724 10.4323 41.6046 10.4323ZM87.5732 26.1431C85.5367 26.6003 83.5832 26.8913 81.2557 26.8913C75.894 26.8913 72.8184 25.2703 72.8184 17.2071C72.8184 9.39324 76.1019 7.10727 81.1725 7.10727C86.2432 7.10727 88.4461 8.89448 88.4461 15.7939C88.4461 16.5836 88.4045 17.3733 88.3214 18.2462H77.0578C77.1825 22.9428 78.5541 23.6909 82.0038 23.6909C83.8741 23.6909 85.3704 23.4415 87.1576 23.0259L87.5732 26.1431ZM84.6223 15.4614C84.5807 11.3051 83.5416 10.3907 81.0478 10.3907C78.5541 10.3907 77.2241 11.4298 77.0994 15.4614H84.6223ZM93.3921 7.14884H97.6315V26.5588H93.3921V7.14884ZM115.171 24.6469C113.134 25.9353 111.306 26.9328 109.061 26.9328C105.071 26.9328 102.494 24.7715 102.494 17.3733C102.494 9.97512 106.11 7.14884 110.433 7.14884C112.095 7.14884 113.342 7.64759 114.672 8.35416V0.207815H118.912V26.5172H115.42L115.171 24.6469ZM114.672 11.7208C113.425 11.0142 112.386 10.5986 111.139 10.5986C108.895 10.5986 106.734 11.9286 106.734 17.2071C106.734 22.4025 108.022 23.4831 110.267 23.4831C111.514 23.4831 112.844 22.8181 114.714 21.6128L114.672 11.7208ZM138.613 26.1431C136.576 26.6003 134.623 26.8913 132.295 26.8913C126.933 26.8913 123.858 25.2703 123.858 17.2071C123.858 9.39324 127.141 7.10727 132.212 7.10727C137.283 7.10727 139.485 8.89448 139.485 15.7939C139.485 16.5836 139.444 17.3733 139.361 18.2462H128.097C128.222 22.9428 129.593 23.6909 133.085 23.6909C134.955 23.6909 136.451 23.4415 138.239 23.0259L138.613 26.1431ZM135.662 15.4614C135.62 11.3051 134.581 10.3907 132.087 10.3907C129.593 10.3907 128.263 11.4298 128.139 15.4614H135.662ZM55.0294 21.114L66.3761 7.1904H71.1559L63.5498 16.4174L70.948 26.5588H65.9189L60.9314 19.5762L55.071 26.3094L55.0294 21.114ZM59.3104 7.14884H55.0294V15.1289L59.3104 10.0167V7.14884Z" fill="#431E61"></path></svg>