<svg xmlns="http://www.w3.org/2000/svg" width="123" height="135" viewBox="0 0 123 135" fill="none"><path d="M0.0191001 34.2856L27.4787 0.602653H39.0183L20.6217 22.8765L38.4453 47.4329H26.2594L14.1786 30.5102L0.0191001 46.7453V34.2856ZM10.3204 0.564453H0V19.8333L10.3204 7.45322V0.564453Z" fill="#431E61"></path><path d="M0 66.7052H3.73969L13.9199 94.2334C16.2053 100.57 17.4519 104.31 19.4256 110.127H19.5295C21.5032 104.102 22.8537 100.155 25.0351 94.2334L35.2154 66.7052H38.8512L21.711 113.14H17.348L0 66.7052ZM84.8701 69.5099C81.7537 69.7177 78.4296 69.8216 75.3132 70.0293C77.5985 72.2108 79.1567 76.0544 79.1567 82.495C79.1567 95.1684 73.1317 99.6352 62.1204 99.6352C58.069 99.6352 55.1604 99.0119 52.7711 97.9731C50.278 99.6352 49.3431 100.778 49.3431 102.544C49.3431 104.725 50.7974 106.387 58.4846 107.946C64.3018 109.192 69.1842 110.127 73.2356 110.958C79.6761 112.309 82.7925 115.113 82.7925 120.827C82.7925 128.722 77.0791 134.851 61.7048 134.851C47.2655 134.851 42.487 129.657 42.487 121.762C42.487 115.529 46.6422 111.893 52.3556 109.4C48.2004 108.153 45.915 105.972 45.915 102.855C45.915 99.9468 47.4733 98.4925 50.1741 96.4149C47.3694 94.0257 45.2918 90.0782 45.2918 82.7027C45.2918 70.0293 51.3168 65.5625 62.3281 65.5625C66.2756 65.5625 68.6648 66.0819 70.6386 66.8091H84.8701V69.5099ZM56.8225 110.647C50.7974 112.516 46.0189 115.737 46.0189 121.762C46.0189 128.098 49.447 132.046 61.9126 132.046C75.3132 132.046 79.2606 126.748 79.2606 121.138C79.2606 116.879 76.5597 114.802 71.5735 113.763C66.5872 112.724 61.8087 111.685 56.8225 110.647ZM62.1204 68.4711C52.5634 68.4711 48.8237 71.5875 48.8237 82.495C48.8237 93.4024 52.4595 96.7266 62.2243 96.7266C71.7812 96.7266 75.6248 93.6102 75.6248 82.7027C75.6248 71.7953 71.6773 68.4711 62.1204 68.4711ZM91.6223 109.608C95.7775 110.543 99.4133 111.062 102.841 111.062C113.437 111.062 117.177 107.011 117.177 101.297C117.177 96.1033 114.892 94.4412 105.335 90.7015C95.362 86.8579 91.934 84.2609 91.934 77.8204C91.934 70.0293 97.8552 65.8741 107.932 65.8741C111.671 65.8741 115.515 66.4974 118.839 67.4323L118.216 70.341C114.476 69.5099 111.152 68.8867 107.62 68.8867C99.3095 68.8867 95.3621 71.8992 95.3621 77.8204C95.3621 82.1833 97.3358 84.1571 106.685 87.7929C116.969 91.8442 120.501 94.0257 120.501 101.297C120.501 108.984 115.099 114.178 102.322 114.178C98.6862 114.178 94.8426 113.659 90.7913 112.62L91.6223 109.608Z" fill="#9E3095"></path><path d="M50.877 13.8487C50.877 13.8487 60.035 0.564453 72.2122 0.564453C73.8224 0.564453 74.9294 0.866369 75.9358 1.4702L74.6275 10.6282C73.5205 10.0244 72.3128 9.82314 70.7026 9.82314C68.2873 9.82314 65.2682 11.534 61.2427 14.0499V47.5624H50.9776L50.877 13.8487ZM102.089 48.8707C88.9053 48.8707 81.76 44.04 81.76 25.0195C81.76 6.09954 89.4085 0.564453 102.491 0.564453C115.675 0.564453 122.82 5.39507 122.82 24.4156C122.82 43.4362 115.172 48.8707 102.089 48.8707ZM102.19 8.61549C95.3462 8.61549 92.0251 11.3327 92.0251 24.7176C92.0251 38.3037 95.3462 41.1215 102.29 41.1215C109.234 41.1215 112.555 38.3037 112.555 24.9188C112.555 11.3327 109.134 8.61549 102.19 8.61549Z" fill="#431E61"></path></svg>